<svg width="32" height="33" viewBox="0 0 32 33" fill="none" xmlns="http://www.w3.org/2000/svg">
<path d="M21.0365 4.57471H10.9755C6.60531 4.57471 4.00001 7.18001 4.00001 11.5502V21.5992C4.00001 25.9814 6.60531 28.5867 10.9755 28.5867H21.0245C25.3947 28.5867 28 25.9814 28 21.6112V11.5502C28.012 7.18001 25.4067 4.57471 21.0365 4.57471ZM22.4292 13.0389L19.6198 22.0914C18.9475 24.2405 15.934 24.2765 15.2256 22.1395L14.3852 19.6542C14.1571 18.9699 13.6168 18.4176 12.9325 18.2015L10.4352 17.3611C8.32216 16.6527 8.34617 13.6152 10.4952 12.9669L19.5478 10.1455C21.3246 9.60521 22.9935 11.274 22.4292 13.0389Z" fill="url(#paint0_linear_214_14)"/>
<defs>
<linearGradient id="paint0_linear_214_14" x1="15.4" y1="6.13549" x2="31.9458" y2="20.8911" gradientUnits="userSpaceOnUse">
<stop stop-color="#0A7FEA"/>
<stop offset="1" stop-color="#1B48AA"/>
</linearGradient>
</defs>
</svg>
