<svg width="32" height="33" viewBox="0 0 32 33" fill="none" xmlns="http://www.w3.org/2000/svg">
<path d="M26.8012 12.0247C25.892 11.0206 24.5215 10.4371 22.6218 10.2336V9.20232C22.6218 7.34333 21.8348 5.55218 20.4507 4.30381C19.7678 3.67765 18.9602 3.20287 18.0809 2.91056C17.2017 2.61826 16.2706 2.51503 15.3487 2.60765C12.1056 2.91974 9.37818 6.05425 9.37818 9.44657V10.2336C7.47848 10.4371 6.10798 11.0206 5.19884 12.0247C3.88262 13.4902 3.92333 15.4442 4.07259 16.8011L5.02244 24.3592C5.3074 27.0052 6.37937 29.7191 12.2142 29.7191H19.7858C25.6206 29.7191 26.6926 27.0052 26.9776 24.3728L27.9274 16.7876C28.0767 15.4442 28.1174 13.4902 26.8012 12.0247ZM15.5386 4.49378C16.1963 4.42772 16.8604 4.50037 17.4882 4.70702C18.116 4.91367 18.6934 5.24973 19.1832 5.69349C19.673 6.13724 20.0642 6.67882 20.3317 7.28322C20.5991 7.88762 20.7367 8.5414 20.7357 9.20232V10.1522H11.2643V9.44657C11.2643 7.03124 13.259 4.71089 15.5386 4.49378ZM16 25.0784C13.164 25.0784 10.8572 22.7716 10.8572 19.9356C10.8572 17.0997 13.164 14.7929 16 14.7929C18.836 14.7929 21.1428 17.0997 21.1428 19.9356C21.1428 22.7716 18.836 25.0784 16 25.0784Z" fill="url(#paint0_linear_214_2)"/>
<path d="M14.6431 22.3645C14.3039 22.3645 13.9646 22.1881 13.7747 21.876C13.4897 21.4011 13.639 20.7633 14.1275 20.4784L15.3351 19.7592V18.2937C15.3351 17.7374 15.7965 17.276 16.3528 17.276C16.9092 17.276 17.357 17.7238 17.357 18.2937V20.3291C17.357 20.6819 17.167 21.0211 16.8685 21.1975L15.1723 22.2152C15.0095 22.3102 14.8195 22.3645 14.6431 22.3645Z" fill="url(#paint1_linear_214_2)"/>
<defs>
<linearGradient id="paint0_linear_214_2" x1="15.4" y1="4.33909" x2="33.7098" y2="18.7836" gradientUnits="userSpaceOnUse">
<stop stop-color="#0A7FEA"/>
<stop offset="1" stop-color="#1B48AA"/>
</linearGradient>
<linearGradient id="paint1_linear_214_2" x1="15.4008" y1="17.6068" x2="18.6328" y2="19.7185" gradientUnits="userSpaceOnUse">
<stop stop-color="#0A7FEA"/>
<stop offset="1" stop-color="#1B48AA"/>
</linearGradient>
</defs>
</svg>
