<svg width="32" height="33" viewBox="0 0 32 33" fill="none" xmlns="http://www.w3.org/2000/svg">
<path d="M15.6008 4.57471C12.4566 4.57471 9.90048 7.13084 9.90048 10.275C9.90048 13.3591 12.3126 15.8553 15.4568 15.9633C15.5528 15.9513 15.6488 15.9513 15.7208 15.9633H15.8048C17.2801 15.9141 18.6784 15.293 19.7041 14.2315C20.7298 13.1699 21.3025 11.7511 21.3011 10.275C21.3011 7.13084 18.7449 4.57471 15.6008 4.57471ZM21.6971 19.1542C18.3489 16.9221 12.8886 16.9221 9.51646 19.1542C7.99239 20.1743 7.15234 21.5544 7.15234 23.0304C7.15234 24.5065 7.99239 25.8746 9.50446 26.8826C11.1845 28.0107 13.3927 28.5747 15.6008 28.5747C17.8089 28.5747 20.017 28.0107 21.6971 26.8826C23.2091 25.8626 24.0492 24.4945 24.0492 23.0064C24.0372 21.5304 23.2091 20.1623 21.6971 19.1542ZM28.7894 10.9806C28.9814 13.3087 27.3254 15.3488 25.0332 15.6249H24.9732C24.9012 15.6249 24.8292 15.6249 24.7692 15.6489C23.6052 15.7089 22.5371 15.3368 21.7331 14.6528C22.9691 13.5488 23.6772 11.8927 23.5332 10.0926C23.4508 9.15654 23.1329 8.25656 22.6091 7.47645C23.2379 7.17053 23.9317 7.02219 24.6307 7.04422C25.3296 7.06624 26.0127 7.25798 26.621 7.60288C27.2293 7.94779 27.7446 8.4355 28.1223 9.02396C28.5001 9.61242 28.7291 10.284 28.7894 10.9806Z" fill="url(#paint0_linear_214_5)"/>
<path d="M31.1871 22.0836C31.0911 23.2477 30.3471 24.2558 29.099 24.9398C27.899 25.5998 26.3869 25.9118 24.8868 25.8758C25.7508 25.0958 26.2549 24.1238 26.3509 23.0917C26.4709 21.6036 25.7628 20.1756 24.3468 19.0355C23.5427 18.3995 22.6067 17.8954 21.5866 17.5234C24.2388 16.7554 27.5749 17.2714 29.627 18.9275C30.7311 19.8155 31.2951 20.9316 31.1871 22.0836Z" fill="url(#paint1_linear_214_5)"/>
<path d="M0.0130835 22.5131C0.108957 23.6366 0.851984 24.6095 2.09835 25.2697C3.29677 25.9067 4.80679 26.2079 6.30482 26.1731C5.44195 25.4203 4.93862 24.4821 4.84274 23.486C4.7229 22.0498 5.42997 20.6715 6.84411 19.5711C7.64706 18.9573 8.58183 18.4708 9.60049 18.1117C6.95197 17.3705 3.62035 17.8685 1.57104 19.4669C0.468487 20.324 -0.0947752 21.4012 0.0130835 22.5131Z" fill="url(#paint2_linear_214_5)"/>
<path d="M15.6039 4.57471C18.748 4.57471 21.3042 7.13084 21.3042 10.275C21.3042 13.3591 18.892 15.8553 15.7479 15.9633C15.6519 15.9513 15.5559 15.9513 15.4839 15.9633H15.3999C13.9246 15.9141 12.5262 15.293 11.5005 14.2315C10.4748 13.1699 9.90216 11.7511 9.9036 10.275C9.9036 7.13084 12.4597 4.57471 15.6039 4.57471ZM9.50758 19.1542C12.8557 16.9221 18.316 16.9221 21.6882 19.1542C23.2123 20.1743 24.0523 21.5544 24.0523 23.0304C24.0523 24.5065 23.2123 25.8746 21.7002 26.8826C20.0201 28.0107 17.812 28.5747 15.6039 28.5747C13.3958 28.5747 11.1877 28.0107 9.50758 26.8826C7.99551 25.8626 7.15546 24.4945 7.15546 23.0064C7.16746 21.5304 7.99551 20.1623 9.50758 19.1542ZM2.41523 10.9806C2.22322 13.3087 3.8793 15.3488 6.17141 15.6249H6.23142C6.30342 15.6249 6.37543 15.6249 6.43543 15.6489C7.59949 15.7089 8.66754 15.3368 9.47158 14.6528C8.23552 13.5488 7.52748 11.8927 7.67149 10.0926C7.75383 9.15654 8.07172 8.25656 8.59554 7.47645C7.96672 7.17053 7.27292 7.02219 6.57398 7.04422C5.87504 7.06624 5.19196 7.25798 4.58365 7.60288C3.97534 7.94779 3.46008 8.4355 3.0823 9.02396C2.70453 9.61242 2.47559 10.284 2.41523 10.9806Z" fill="url(#paint3_linear_214_5)"/>
<defs>
<linearGradient id="paint0_linear_214_5" x1="17.4371" y1="6.13471" x2="33.699" y2="19.225" gradientUnits="userSpaceOnUse">
<stop stop-color="#0A7FEA"/>
<stop offset="1" stop-color="#1B48AA"/>
</linearGradient>
<linearGradient id="paint1_linear_214_5" x1="26.1531" y1="17.7407" x2="32.1892" y2="23.6894" gradientUnits="userSpaceOnUse">
<stop stop-color="#0A7FEA"/>
<stop offset="1" stop-color="#1B48AA"/>
</linearGradient>
<linearGradient id="paint2_linear_214_5" x1="5.04027" y1="18.3214" x2="-0.785033" y2="24.2616" gradientUnits="userSpaceOnUse">
<stop stop-color="#0A7FEA"/>
<stop offset="1" stop-color="#1B48AA"/>
</linearGradient>
<linearGradient id="paint3_linear_214_5" x1="13.7675" y1="6.13471" x2="-2.49433" y2="19.225" gradientUnits="userSpaceOnUse">
<stop stop-color="#0A7FEA"/>
<stop offset="1" stop-color="#1B48AA"/>
</linearGradient>
</defs>
</svg>
